<?xml version="1.0" encoding="UTF-8" standalone="no"?>
<!-- Created with Inkscape (http://www.inkscape.org/) -->

<svg
   xmlns:dc="http://purl.org/dc/elements/1.1/"
   xmlns:cc="http://creativecommons.org/ns#"
   xmlns:rdf="http://www.w3.org/1999/02/22-rdf-syntax-ns#"
   xmlns:svg="http://www.w3.org/2000/svg"
   xmlns="http://www.w3.org/2000/svg"
   xmlns:sodipodi="http://sodipodi.sourceforge.net/DTD/sodipodi-0.dtd"
   xmlns:inkscape="http://www.inkscape.org/namespaces/inkscape"
   width="135.46666mm"
   height="135.46666mm"
   viewBox="0 0 135.46665 135.46666"
   version="1.1"
   id="svg8"
   inkscape:version="0.92.5 (2060ec1f9f, 2020-04-08)"
   sodipodi:docname="icon.svg"
   inkscape:export-filename="C:\Users\dell_\Documents\operezcham\assets\favicon.png"
   inkscape:export-xdpi="96"
   inkscape:export-ydpi="96">
  <defs
     id="defs2" />
  <sodipodi:namedview
     id="base"
     pagecolor="#ffffff"
     bordercolor="#666666"
     borderopacity="1.0"
     inkscape:pageopacity="0.0"
     inkscape:pageshadow="2"
     inkscape:zoom="0.35"
     inkscape:cx="-100"
     inkscape:cy="470.28304"
     inkscape:document-units="mm"
     inkscape:current-layer="layer1"
     showgrid="false"
     inkscape:window-width="1920"
     inkscape:window-height="1017"
     inkscape:window-x="-8"
     inkscape:window-y="-8"
     inkscape:window-maximized="1" />
  <metadata
     id="metadata5">
    <rdf:RDF>
      <cc:Work
         rdf:about="">
        <dc:format>image/svg+xml</dc:format>
        <dc:type
           rdf:resource="http://purl.org/dc/dcmitype/StillImage" />
        <dc:title></dc:title>
      </cc:Work>
    </rdf:RDF>
  </metadata>
  <g
     inkscape:label="Layer 1"
     inkscape:groupmode="layer"
     id="layer1"
     transform="translate(0,-137.79572)">
    <rect
       style="opacity:0;fill:#0000ff;fill-opacity:1;stroke:none;stroke-width:0.09888516;stroke-linecap:butt;stroke-linejoin:round;stroke-miterlimit:4;stroke-dasharray:none;stroke-dashoffset:0;stroke-opacity:1;paint-order:markers stroke fill"
       id="rect839"
       width="135.46666"
       height="135.46666"
       x="0"
       y="137.79572" />
    <path
       style="stroke-width:0.30238092;opacity:0.8"
       d="M 19.352381,138.31485 C 8.663215,138.31485 0,146.97806 0,157.66722 v 96.76191 c 0,9.14693 6.363891,16.82253 14.91057,18.83325 9.516694,-9.74638 22.798363,-15.79999 37.492283,-15.79999 h 30.66096 c 14.69486,0 27.976067,6.05313 37.492277,15.79881 8.53792,-2.01247 14.91058,-9.68687 14.91058,-18.83207 v -96.76191 c 0,-10.68916 -8.67834,-19.35237 -19.35239,-19.35237 z m 48.380952,27.22373 c 21.37833,0 38.704757,17.32946 38.704757,38.70476 0,21.3753 -17.326427,38.70476 -38.704757,38.70476 -21.37833,0 -38.704762,-17.32946 -38.704762,-38.70476 0,-21.3753 17.326432,-38.70476 38.704762,-38.70476 z"
       id="path815"
       inkscape:connector-curvature="0" />
  </g>
</svg>
